<?xml version="1.0" encoding="UTF-8" standalone="no"?>
<svg
   width="40"
   height="40"
   viewBox="0 0 40 40"
   version="1.1"
   id="svg1338"
   sodipodi:docname="pluginIcon_dark.svg"
   inkscape:version="1.2.1 (9c6d41e410, 2022-07-14)"
   xmlns:inkscape="http://www.inkscape.org/namespaces/inkscape"
   xmlns:sodipodi="http://sodipodi.sourceforge.net/DTD/sodipodi-0.dtd"
   xmlns="http://www.w3.org/2000/svg"
   xmlns:svg="http://www.w3.org/2000/svg">
  <defs
     id="defs1342" />
  <sodipodi:namedview
     id="namedview1340"
     pagecolor="#ffffff"
     bordercolor="#000000"
     borderopacity="0.25"
     inkscape:showpageshadow="2"
     inkscape:pageopacity="0.0"
     inkscape:pagecheckerboard="0"
     inkscape:deskcolor="#d1d1d1"
     showgrid="false"
     inkscape:zoom="11.8"
     inkscape:cx="16.525424"
     inkscape:cy="16.864407"
     inkscape:window-width="1920"
     inkscape:window-height="1137"
     inkscape:window-x="1912"
     inkscape:window-y="-8"
     inkscape:window-maximized="1"
     inkscape:current-layer="svg1338" />
  <path
     fill="#3592c4"
     fill-rule="evenodd"
     d="M 2.2542373,2.6779661 H 38.254237 V 28.677966 H 2.2542373 Z m 15.9999997,5 h 4 v 3.9999999 h -4 z m 6,0 h 4 v 3.9999999 h -4 z m 6,0 h 4 v 3.9999999 h -4 z m 0,5.9999999 h 4 v 4 h -4 z m -6,0 h 4 v 4 h -4 z m -12,0 h 4 v 4 h -4 z m -5.9999997,0 h 3.9999997 v 4 H 6.2542373 Z m 0,-5.9999999 H 10.254237 V 11.677966 H 6.2542373 Z m 5.9999997,0 h 4 v 3.9999999 h -4 z m 6,5.9999999 h 4 v 4 h -4 z m 9,10 h -14 v -4 h 14 z"
     id="path1336" />
  <text
     xml:space="preserve"
     style="font-style:normal;font-variant:normal;font-weight:bold;font-stretch:normal;font-size:18.8654px;font-family:Calibri;-inkscape-font-specification:'Calibri, Bold';font-variant-ligatures:normal;font-variant-caps:normal;font-variant-numeric:normal;font-variant-east-asian:normal;fill:#4d4d4d;fill-opacity:1;stroke-width:1.57212"
     x="2.2775607"
     y="36.878712"
     id="text176"
     transform="scale(0.97759538,1.0229181)"><tspan
       sodipodi:role="line"
       id="tspan1218"
       x="2.2775607"
       y="36.878712">.PDF</tspan></text>
</svg>
