<?xml version="1.0" encoding="UTF-8" standalone="no"?>
<svg
   width="40"
   height="40"
   viewBox="0 0 40 40"
   version="1.1"
   id="svg12"
   sodipodi:docname="pluginIcon.svg"
   inkscape:version="1.2.1 (9c6d41e410, 2022-07-14)"
   xmlns:inkscape="http://www.inkscape.org/namespaces/inkscape"
   xmlns:sodipodi="http://sodipodi.sourceforge.net/DTD/sodipodi-0.dtd"
   xmlns="http://www.w3.org/2000/svg"
   xmlns:svg="http://www.w3.org/2000/svg">
  <defs
     id="defs16" />
  <sodipodi:namedview
     id="namedview14"
     pagecolor="#ffffff"
     bordercolor="#000000"
     borderopacity="0.25"
     inkscape:showpageshadow="2"
     inkscape:pageopacity="0.0"
     inkscape:pagecheckerboard="0"
     inkscape:deskcolor="#d1d1d1"
     showgrid="false"
     inkscape:zoom="16.68772"
     inkscape:cx="4.1048148"
     inkscape:cy="22.711311"
     inkscape:window-width="1920"
     inkscape:window-height="1137"
     inkscape:window-x="-8"
     inkscape:window-y="-8"
     inkscape:window-maximized="1"
     inkscape:current-layer="svg12" />
  <rect
     id="rect6"
     x="10"
     y="2"
     width="20"
     height="7"
     fill="#808080" />
  <path
     d="M 35,11 H 5 c -1.657,0 -3,1.343 -3,3 v 10 h 7 v -5 h 22 v 5 h 7 V 14 c 0,-1.657 -1.343,-3 -3,-3 z m -1,5 h -2 v -2 h 2 z"
     fill="#808080"
     id="path791" />
  <path
     d="m 27,21 v 9 h -2 v -9 h -6 v 1 h -2 v -1 h -2 v 2 H 13 V 21 H 11 V 37 H 29 V 21 Z M 15,35 h -2 v -2 h 2 z m 0,-4 h -2 v -2 h 2 z m 0,-4 h -2 v -2 h 2 z m 4,7 h -2 v -2 h 2 z m 0,-4 h -2 v -2 h 2 z m 0,-4 h -2 v -2 h 2 z m 4,7 h -2 v -2 h 2 z m 0,-4 h -2 v -2 h 2 z m 0,-4 h -2 v -2 h 2 z"
     fill="#389fd6"
     fill-rule="evenodd"
     id="path793" />
</svg>
