<?xml version="1.0" encoding="UTF-8" standalone="no"?>
<svg
   width="40"
   height="40"
   viewBox="0 0 40 40"
   version="1.1"
   id="svg12"
   sodipodi:docname="pluginIcon.svg"
   inkscape:version="1.2.1 (9c6d41e410, 2022-07-14)"
   xmlns:inkscape="http://www.inkscape.org/namespaces/inkscape"
   xmlns:sodipodi="http://sodipodi.sourceforge.net/DTD/sodipodi-0.dtd"
   xmlns="http://www.w3.org/2000/svg"
   xmlns:svg="http://www.w3.org/2000/svg">
  <defs
     id="defs16" />
  <sodipodi:namedview
     id="namedview14"
     pagecolor="#ffffff"
     bordercolor="#000000"
     borderopacity="0.25"
     inkscape:showpageshadow="2"
     inkscape:pageopacity="0.0"
     inkscape:pagecheckerboard="0"
     inkscape:deskcolor="#d1d1d1"
     showgrid="false"
     inkscape:zoom="16.68772"
     inkscape:cx="3.9849662"
     inkscape:cy="22.711311"
     inkscape:window-width="1920"
     inkscape:window-height="1137"
     inkscape:window-x="-8"
     inkscape:window-y="-8"
     inkscape:window-maximized="1"
     inkscape:current-layer="svg12" />
  <path
     fill="#389fd6"
     fill-rule="evenodd"
     d="M 6,22 H 34 V 38 H 6 Z m 12.444444,3.076923 h 3.111113 v 2.461541 h -3.111113 z m 4.666668,0 h 3.11111 v 2.461541 h -3.11111 z m 4.666666,0 h 3.111112 v 2.461541 h -3.111112 z m 0,3.692309 h 3.111112 v 2.461538 h -3.111112 z m -4.666666,0 h 3.11111 v 2.461538 h -3.11111 z m -9.333333,0 h 3.111112 v 2.461538 h -3.111112 z m -4.6666678,0 H 12.222223 V 31.23077 H 9.1111111 Z m 0,-3.692309 h 3.1111118 v 2.461541 H 9.1111111 Z m 4.6666678,0 h 3.111112 v 2.461541 h -3.111112 z m 4.666665,3.692309 h 3.111113 v 2.461538 h -3.111113 z m 6.999999,6.153846 H 14.555557 v -2.461541 h 10.888886 z"
     id="path10"
     style="stroke-width:0.691833" />
  <g
     fill="#6e6e6e"
     transform="matrix(2.5714286,0,0,2.4658407,2,2)"
     id="g8"
     style="fill:#808080;fill-opacity:1">
    <path
       d="M 1.1666667,4 H 12.833333 C 13.477666,4 14,4.4477152 14,5 V 9 H 0 V 5 C 0,4.4477152 0.52233446,4 1.1666667,4 Z M 12,5 v 1 h 1 V 5 Z"
       id="path2"
       style="fill:#808080;fill-opacity:1" />
    <rect
       width="8"
       height="3"
       x="3"
       id="rect6"
       y="0"
       style="fill:#808080;fill-opacity:1" />
  </g>
</svg>
